<?xml version="1.0" standalone="no"?>
<!DOCTYPE svg PUBLIC "-//W3C//DTD SVG 20010904//EN"
 "http://www.w3.org/TR/2001/REC-SVG-20010904/DTD/svg10.dtd">
<svg version="1.0" xmlns="http://www.w3.org/2000/svg"
 width="512.000000pt" height="512.000000pt" viewBox="0 0 512.000000 512.000000"
 preserveAspectRatio="xMidYMid meet">

<g transform="translate(0.000000,512.000000) scale(0.100000,-0.100000)"
fill="#000000" stroke="none">
<path d="M2391 4600 c-532 -44 -1053 -313 -1391 -718 -184 -220 -323 -475
-400 -733 -214 -722 -20 -1496 510 -2029 317 -319 707 -516 1162 -586 141 -22
437 -22 583 1 742 114 1353 606 1620 1305 88 230 127 453 127 720 0 124 -5
221 -17 295 -113 732 -593 1338 -1275 1609 -280 110 -618 160 -919 136z m303
-60 c630 -46 1178 -368 1529 -900 294 -446 391 -1007 265 -1545 -153 -660
-670 -1216 -1322 -1424 -345 -110 -738 -123 -1086 -36 -289 72 -565 214 -795
407 -900 756 -950 2125 -107 2940 221 213 469 364 755 460 182 61 340 89 602
106 11 1 83 -3 159 -8z"/>
</g>
</svg>
