<?xml version="1.0" standalone="no"?>
<!DOCTYPE svg PUBLIC "-//W3C//DTD SVG 20010904//EN"
 "http://www.w3.org/TR/2001/REC-SVG-20010904/DTD/svg10.dtd">
<svg version="1.0" xmlns="http://www.w3.org/2000/svg"
 width="512.000000pt" height="512.000000pt" viewBox="0 0 512.000000 512.000000"
 preserveAspectRatio="xMidYMid meet">

<g transform="translate(0.000000,512.000000) scale(0.100000,-0.100000)"
fill="#000000" stroke="none">
<path d="M0 2560 l0 -1920 2115 0 2115 0 0 80 0 80 -310 0 -310 0 0 120 0 120
95 0 95 0 0 80 0 80 -95 0 -95 0 0 1355 0 1355 95 0 95 0 0 80 0 80 -95 0 -95
0 0 125 0 125 675 0 675 0 0 -433 0 -433 -89 -18 c-164 -33 -311 -110 -434
-226 -129 -122 -203 -240 -254 -407 -24 -79 -27 -103 -27 -243 0 -140 3 -164
27 -243 52 -168 126 -287 255 -408 125 -117 270 -192 433 -225 l89 -18 0 -433
0 -433 -285 0 -285 0 0 -80 0 -80 365 0 365 0 0 1920 0 1920 -2115 0 -2116 0
3 -77 3 -78 308 -3 307 -2 0 -125 0 -125 -95 0 -95 0 0 -80 0 -80 95 0 95 0 0
-1355 0 -1355 -95 0 -95 0 0 -80 0 -80 95 0 95 0 0 -120 0 -120 -675 0 -675 0
0 434 0 434 63 11 c191 33 361 125 498 267 109 115 169 218 216 371 24 79 27
103 27 243 0 140 -3 164 -27 243 -52 168 -126 287 -255 408 -125 117 -272 193
-434 225 l-88 17 0 434 0 433 115 0 115 0 0 80 0 80 -195 0 -195 0 0 -1920z
m2480 1345 l0 -415 80 0 80 0 0 415 0 415 405 0 405 0 0 -125 0 -125 -90 0
-90 0 0 -80 0 -80 90 0 90 0 0 -1355 0 -1355 -90 0 -90 0 0 -80 0 -80 90 0 90
0 0 -120 0 -120 -405 0 -405 0 0 1270 0 1270 -80 0 -80 0 0 -1270 0 -1270
-405 0 -405 0 0 120 0 120 90 0 90 0 0 80 0 80 -90 0 -90 0 0 1355 0 1355 90
0 90 0 0 80 0 80 -90 0 -90 0 0 125 0 125 405 0 405 0 0 -415z m-2175 -645
c116 -40 197 -91 291 -185 78 -77 98 -105 137 -185 59 -121 77 -198 77 -330 0
-132 -18 -209 -77 -330 -39 -80 -59 -108 -137 -185 -69 -69 -111 -101 -171
-132 -75 -39 -207 -83 -247 -83 -17 0 -18 38 -18 731 l0 731 45 -7 c25 -3 70
-15 100 -25z m4655 -700 c0 -603 -2 -730 -13 -730 -41 0 -179 45 -250 82 -63
32 -104 64 -173 133 -78 77 -98 105 -137 185 -59 121 -77 198 -77 330 0 132
18 209 77 330 39 80 59 108 137 185 69 69 110 101 173 133 74 39 200 80 246
81 16 1 17 -40 17 -729z"/>
<path d="M560 4400 l0 -81 83 3 82 3 3 78 3 77 -86 0 -85 0 0 -80z"/>
</g>
</svg>
