<?xml version="1.0" standalone="no"?>
<!DOCTYPE svg PUBLIC "-//W3C//DTD SVG 20010904//EN"
 "http://www.w3.org/TR/2001/REC-SVG-20010904/DTD/svg10.dtd">
<svg version="1.0" xmlns="http://www.w3.org/2000/svg"
 width="512.000000pt" height="512.000000pt" viewBox="0 0 512.000000 512.000000"
 preserveAspectRatio="xMidYMid meet">

<g transform="translate(0.000000,512.000000) scale(0.100000,-0.100000)"
fill="#000000" stroke="none">
<path d="M263 5055 c-126 -34 -246 -121 -258 -187 -5 -27 3 -53 38 -129 46
-99 67 -123 127 -139 l35 -10 453 -1148 c632 -1602 666 -1687 881 -2232 106
-267 207 -512 226 -545 131 -235 426 -382 694 -346 314 42 543 257 607 571 31
157 6 323 -75 483 -36 72 -57 100 -99 134 -192 155 -462 38 -480 -208 -4 -58
0 -76 32 -156 45 -112 46 -151 7 -195 -25 -28 -36 -33 -75 -33 -35 0 -51 6
-70 25 -14 14 -125 237 -246 495 -122 259 -239 508 -262 555 -22 47 -128 272
-235 500 -166 353 -582 1236 -953 2023 l-99 208 21 45 c24 55 20 83 -26 192
-26 63 -39 80 -67 94 -40 21 -104 22 -176 3z m137 -78 c0 -43 -153 -126 -250
-134 -50 -5 -60 -3 -60 10 0 17 47 60 94 84 84 44 216 68 216 40z m61 -170
c-18 -48 -147 -115 -237 -124 -46 -5 -52 -3 -72 22 -30 38 -28 55 6 55 65 0
196 53 257 104 l30 25 12 -29 c9 -20 10 -37 4 -53z m575 -1397 l586 -1245 -44
-39 c-60 -54 -152 -96 -218 -99 l-53 -2 -508 1285 c-280 707 -509 1288 -509
1292 0 3 21 14 48 23 26 8 58 22 72 30 14 7 28 10 32 6 4 -4 272 -567 594
-1251z m661 -1401 c18 -38 30 -76 27 -84 -10 -26 -104 -93 -157 -113 -29 -11
-77 -22 -108 -26 l-56 -7 -30 78 -30 78 61 12 c73 15 192 72 225 107 14 14 27
26 30 26 3 -1 20 -32 38 -71z m282 -607 c112 -240 215 -456 228 -479 68 -122
253 -128 330 -12 43 66 43 126 -2 234 -32 78 -36 98 -33 152 7 114 92 193 205
193 95 0 156 -46 213 -159 46 -93 70 -197 70 -310 0 -179 -57 -318 -180 -441
-119 -120 -264 -180 -431 -180 -175 0 -318 59 -439 180 -45 45 -88 99 -107
135 -30 58 -396 976 -391 980 2 1 32 7 68 13 72 13 196 71 231 108 12 13 25
24 28 24 3 -1 98 -197 210 -438z"/>
<path d="M1820 4749 c-213 -4 -328 -10 -355 -18 -146 -47 -292 -169 -353 -294
-58 -120 -63 -156 -62 -426 0 -134 3 -247 6 -252 8 -13 48 -11 62 3 8 8 12 59
12 165 l0 153 210 0 210 0 0 -250 0 -250 -191 0 c-112 0 -198 -4 -210 -10 -11
-6 -19 -21 -19 -35 0 -14 8 -29 19 -35 12 -6 98 -10 210 -10 l191 0 0 -250 0
-250 -24 0 c-42 0 -56 -11 -56 -41 0 -16 6 -32 13 -35 7 -2 762 -6 1678 -7
l1664 -2 3 -167 2 -168 -198 0 c-141 0 -201 -3 -210 -12 -14 -14 -16 -54 -3
-62 5 -3 158 -6 341 -6 335 -1 360 2 360 36 0 33 -30 44 -120 44 l-89 0 -3
858 c-3 854 -3 857 -25 915 -37 97 -82 172 -136 228 -99 101 -226 164 -352
175 -85 8 -2195 10 -2575 3z m280 -624 l0 -545 -235 0 -235 0 0 250 0 250 173
0 c192 0 215 6 204 52 -4 15 -16 28 -29 32 -13 3 -96 6 -185 6 l-163 0 0 250
0 250 235 0 235 0 0 -545z m540 295 l0 -250 -166 0 c-91 0 -173 -4 -183 -10
-28 -14 -34 -40 -15 -61 15 -17 34 -19 191 -19 l173 0 0 -250 0 -250 -230 0
-230 0 0 545 0 545 230 0 230 0 0 -250z m590 0 l0 -250 -255 0 -255 0 0 250 0
250 255 0 255 0 0 -250z m500 56 c0 -164 3 -197 16 -210 8 -9 22 -16 29 -16 7
0 21 7 29 16 13 13 16 46 16 210 l0 194 230 0 230 0 0 -250 0 -250 -485 0
-485 0 0 250 0 250 210 0 210 0 0 -194z m735 172 c65 -16 156 -70 210 -124 84
-84 130 -176 144 -291 l7 -63 -233 0 -233 0 0 243 c0 134 3 247 6 250 7 7 21
4 99 -15z m-2915 -233 l0 -245 -210 0 -210 0 0 33 c0 48 26 139 56 199 51 100
169 202 278 240 93 32 86 51 86 -227z m1680 -535 l0 -200 25 -12 c19 -8 28 -8
40 2 12 10 15 45 15 211 l0 199 485 0 485 0 0 -250 0 -250 -230 0 -230 0 0
214 c0 182 -2 217 -16 230 -8 9 -22 16 -29 16 -7 0 -21 -7 -29 -16 -14 -13
-16 -48 -16 -230 l0 -214 -505 0 -505 0 0 250 0 250 255 0 255 0 0 -200z
m1600 -50 l0 -250 -235 0 -235 0 0 250 0 250 235 0 235 0 0 -250z m-2730 -529
c0 -103 -3 -216 -6 -250 l-7 -61 -228 0 -229 0 0 250 0 250 235 0 235 0 0
-189z m540 -61 l0 -250 -230 0 -230 0 0 250 0 250 230 0 230 0 0 -250z m1090
0 l0 -250 -210 0 -210 0 0 180 c0 169 -1 180 -20 190 -14 8 -26 8 -40 0 -19
-10 -20 -21 -20 -190 l0 -180 -249 0 -248 0 -6 68 c-4 37 -7 149 -7 250 l0
182 505 0 505 0 0 -250z m550 0 l0 -250 -230 0 -230 0 0 250 0 250 230 0 230
0 0 -250z m550 0 l0 -250 -235 0 -235 0 0 250 0 250 235 0 235 0 0 -250z"/>
<path d="M346 2554 c-19 -19 -20 -36 -4 -52 17 -17 549 -17 566 0 16 16 15 33
-4 52 -13 14 -53 16 -279 16 -226 0 -266 -2 -279 -16z"/>
<path d="M1690 2556 c-6 -8 -10 -25 -8 -38 l3 -23 1265 -3 c1180 -2 1266 -1
1278 15 16 22 15 28 -4 47 -14 14 -143 16 -1268 16 -1081 0 -1255 -2 -1266
-14z"/>
<path d="M3586 1830 c-51 -54 -53 -61 -30 -84 23 -24 40 -20 85 21 47 42 61
70 47 96 -16 31 -53 20 -102 -33z"/>
<path d="M3351 1596 c-92 -92 -103 -107 -97 -130 5 -20 13 -26 33 -26 19 0 50
23 120 92 51 51 96 103 99 115 7 27 -11 53 -35 53 -9 0 -63 -47 -120 -104z"/>
<path d="M3371 1126 c-7 -8 -11 -25 -9 -38 l3 -23 279 0 c255 0 280 2 290 18
8 12 8 22 0 35 -10 15 -37 17 -281 20 -227 2 -272 0 -282 -12z"/>
<path d="M920 954 c-216 -58 -365 -288 -330 -511 41 -265 308 -444 563 -378
213 55 348 228 348 445 1 136 -38 229 -135 326 -118 118 -284 162 -446 118z
m263 -94 c80 -30 165 -111 203 -192 26 -56 29 -74 29 -158 0 -88 -3 -101 -33
-162 -41 -84 -120 -158 -200 -189 -79 -30 -195 -30 -275 0 -81 31 -166 112
-203 193 -26 56 -29 74 -29 163 0 89 3 106 27 156 49 99 151 182 255 209 57
14 161 5 226 -20z"/>
<path d="M1292 528 c-7 -7 -12 -22 -12 -34 0 -40 -30 -109 -63 -142 -42 -44
-61 -54 -126 -67 -60 -12 -83 -34 -65 -62 15 -25 75 -28 137 -7 69 23 157 109
180 178 29 85 19 146 -23 146 -9 0 -21 -5 -28 -12z"/>
<path d="M3268 799 c-41 -23 -21 -51 175 -247 106 -106 200 -192 209 -192 19
0 48 26 48 43 0 14 -392 407 -405 407 -6 0 -18 -5 -27 -11z"/>
</g>
</svg>
