<?xml version="1.0" standalone="no"?>
<!DOCTYPE svg PUBLIC "-//W3C//DTD SVG 20010904//EN"
 "http://www.w3.org/TR/2001/REC-SVG-20010904/DTD/svg10.dtd">
<svg version="1.0" xmlns="http://www.w3.org/2000/svg"
 width="512.000000pt" height="512.000000pt" viewBox="0 0 512.000000 512.000000"
 preserveAspectRatio="xMidYMid meet">

<g transform="translate(0.000000,512.000000) scale(0.100000,-0.100000)"
fill="#000000" stroke="none">
<path d="M2447 2719 c-150 -35 -291 -168 -338 -320 -25 -79 -25 -198 -1 -276
l19 -59 -34 -40 c-38 -43 -94 -153 -115 -224 -9 -31 -13 -107 -13 -240 0 -185
2 -199 27 -267 30 -83 66 -149 110 -199 17 -19 29 -36 27 -37 -2 -2 -36 -16
-76 -31 -40 -15 -107 -51 -151 -80 l-78 -53 -55 40 c-46 34 -174 100 -232 120
-16 6 -13 13 21 59 103 137 127 224 126 463 0 174 -1 183 -30 265 -57 161
-160 279 -307 349 -96 46 -161 61 -262 61 l-74 0 -69 68 c-76 77 -176 133
-269 152 -74 16 -222 8 -288 -15 -120 -41 -239 -140 -300 -250 -67 -121 -68
-127 -73 -579 -2 -225 -1 -430 3 -454 4 -30 16 -55 35 -74 28 -28 29 -28 155
-28 146 0 214 18 306 79 l57 38 17 -29 c9 -17 31 -45 48 -64 l30 -35 -24 -6
c-46 -12 -205 -99 -265 -145 -153 -118 -272 -298 -324 -493 -30 -112 -39 -309
-16 -353 35 -67 -178 -62 2526 -62 2705 0 2491 -5 2526 62 23 44 14 240 -16
353 -52 194 -170 375 -324 493 -60 46 -219 133 -265 145 l-24 6 31 35 c17 20
42 54 54 76 16 28 28 38 38 34 94 -39 129 -46 197 -42 130 9 238 80 294 194
34 71 42 161 37 429 -4 237 -6 254 -30 323 -33 93 -74 156 -146 225 -213 202
-543 196 -754 -15 l-69 -68 -74 0 c-101 0 -166 -15 -262 -61 -147 -70 -250
-188 -307 -349 -29 -82 -30 -91 -30 -265 -1 -238 23 -325 126 -463 34 -46 37
-53 21 -59 -58 -20 -186 -86 -232 -120 l-55 -40 -78 53 c-44 29 -111 65 -151
80 -40 15 -74 29 -76 31 -2 1 10 18 27 37 45 51 81 117 109 199 35 99 44 340
19 468 -19 94 -71 208 -120 266 -33 37 -33 38 -18 73 24 57 28 209 7 286 -42
157 -187 297 -346 333 -53 13 -170 12 -222 0z m218 -233 c56 -25 107 -78 130
-133 13 -30 22 -153 12 -153 -2 0 -30 10 -63 22 -49 18 -80 22 -184 22 -104 0
-135 -4 -184 -22 -33 -12 -61 -22 -63 -22 -1 0 -3 28 -3 62 0 42 7 75 21 105
24 50 95 116 141 130 59 19 139 15 193 -11z m-2002 -240 c40 -15 117 -64 116
-75 0 -3 -26 -25 -58 -48 -91 -66 -168 -178 -207 -300 -9 -29 -18 -112 -23
-208 -7 -164 -11 -180 -59 -244 -30 -40 -113 -81 -165 -81 l-38 0 3 358 c4
319 6 362 23 407 24 66 123 166 185 188 56 19 172 21 223 3z m4043 -19 c66
-34 138 -113 161 -180 16 -45 18 -86 18 -312 0 -230 -2 -264 -18 -292 -33 -61
-113 -81 -174 -43 -52 31 -60 59 -66 225 -3 95 -11 167 -21 198 -40 123 -116
234 -207 300 -32 23 -58 45 -58 48 -2 12 78 61 121 75 67 22 182 13 244 -19z
m-3464 -229 c31 -14 76 -45 101 -67 46 -43 100 -133 112 -188 l7 -33 -137 0
c-132 0 -138 1 -167 25 -22 18 -41 25 -73 25 -32 0 -51 -7 -73 -25 -29 -24
-36 -25 -161 -25 -129 0 -131 0 -131 23 0 31 53 136 86 172 87 92 171 127 294
122 66 -2 98 -9 142 -29z m1470 0 c106 -49 198 -161 215 -261 l6 -37 -372 0
c-424 0 -389 -9 -350 94 36 96 134 187 242 222 67 22 190 13 259 -18z m1480
-3 c32 -15 79 -49 105 -74 47 -47 103 -148 103 -188 0 -23 -2 -23 -131 -23
-125 0 -132 1 -161 25 -22 18 -41 25 -73 25 -32 0 -51 -7 -73 -25 -29 -24 -35
-25 -167 -25 l-137 0 7 33 c19 85 94 188 172 234 72 42 120 53 213 50 69 -3
96 -9 142 -32z m-2897 -505 l170 -5 -4 -45 c-14 -197 -201 -354 -403 -337
-175 15 -325 158 -344 330 l-7 57 159 0 c109 1 168 5 189 14 22 10 35 10 50 2
11 -6 95 -13 190 -16z m2961 0 l157 0 -7 -57 c-26 -224 -258 -380 -472 -318
-152 43 -265 177 -275 325 l-4 45 170 5 c99 3 178 10 189 16 15 9 27 8 52 -2
24 -10 79 -14 190 -14z m-1321 -57 c-20 -132 -96 -238 -213 -295 -61 -30 -74
-33 -162 -33 -88 0 -101 3 -162 33 -117 57 -193 163 -213 295 l-7 47 382 0
382 0 -7 -47z m-1955 -649 c0 -96 0 -96 34 -130 38 -38 77 -44 126 -19 46 24
60 62 60 161 l0 87 91 -6 c101 -8 215 -42 294 -88 93 -54 91 -47 44 -124 -69
-115 -129 -292 -129 -385 0 -64 27 -60 -416 -60 l-404 0 0 305 0 305 28 11
c51 20 147 37 210 38 l62 1 0 -96z m1472 -5 c3 -99 3 -101 36 -130 45 -40 99
-40 144 0 33 29 33 31 36 132 l4 102 81 -7 c45 -3 111 -14 147 -24 l65 -17 3
-308 2 -307 -410 0 -410 0 2 307 3 307 45 13 c63 19 136 30 197 32 l51 1 4
-101z m1468 16 c0 -98 14 -136 60 -160 49 -25 88 -19 126 19 l34 34 0 97 0 98
88 -6 c48 -3 114 -14 147 -24 l60 -19 3 -307 2 -307 -405 0 -405 0 -4 22 c-2
13 -9 58 -16 101 -18 119 -64 239 -131 340 -30 46 -31 48 -13 62 104 80 255
131 397 134 l57 1 0 -85z m-3460 -340 l0 -235 -110 0 -111 0 7 53 c10 82 50
197 91 265 36 58 109 152 118 152 3 0 5 -106 5 -235z m1470 0 l0 -235 -109 0
-109 0 5 43 c15 129 74 264 160 370 25 31 48 57 50 57 2 0 3 -106 3 -235z
m1351 127 c62 -86 107 -206 123 -325 l5 -37 -110 0 -109 0 0 237 0 237 30 -34
c17 -19 44 -54 61 -78z m1503 -45 c40 -69 80 -184 90 -264 l7 -53 -111 0 -110
0 0 238 1 237 43 -48 c23 -26 59 -76 80 -110z"/>
</g>
</svg>
