<?xml version="1.0" standalone="no"?>
<!DOCTYPE svg PUBLIC "-//W3C//DTD SVG 20010904//EN"
 "http://www.w3.org/TR/2001/REC-SVG-20010904/DTD/svg10.dtd">
<svg version="1.0" xmlns="http://www.w3.org/2000/svg"
 width="512.000000pt" height="512.000000pt" viewBox="0 0 512.000000 512.000000"
 preserveAspectRatio="xMidYMid meet">

<g transform="translate(0.000000,512.000000) scale(0.100000,-0.100000)"
fill="#000000" stroke="none">
<path d="M1350 4230 c-11 -11 -20 -29 -20 -40 0 -11 9 -29 20 -40 19 -19 33
-20 535 -20 502 0 516 1 535 20 11 11 20 29 20 40 0 11 -9 29 -20 40 -19 19
-33 20 -535 20 -502 0 -516 -1 -535 -20z"/>
<path d="M440 4220 c-44 -44 -9 -100 63 -100 56 0 80 18 80 60 0 42 -24 60
-80 60 -30 0 -49 -6 -63 -20z"/>
<path d="M724 4232 c-24 -16 -35 -51 -23 -74 7 -13 17 -26 23 -30 6 -4 113 -8
237 -8 251 0 262 3 262 60 0 57 -11 60 -262 60 -124 0 -231 -4 -237 -8z"/>
<path d="M350 3950 c-19 -19 -20 -33 -20 -515 l0 -495 -118 0 c-179 0 -162 55
-162 -523 0 -464 1 -478 20 -497 18 -18 33 -20 140 -20 l120 0 0 -490 c0 -477
1 -491 20 -510 20 -20 33 -20 2215 -20 2182 0 2195 0 2215 20 19 19 20 33 20
510 l0 490 110 0 c104 0 112 1 135 25 l25 24 0 471 c0 457 -1 471 -20 490 -18
18 -33 20 -135 20 l-115 0 0 500 c0 487 -1 501 -20 520 -20 20 -33 20 -2215
20 -2182 0 -2195 0 -2215 -20z m4320 -1530 l0 -1430 -2110 0 -2110 0 0 1430 0
1430 2110 0 2110 0 0 -1430z m-4340 0 l0 -400 -80 0 -80 0 0 400 0 400 80 0
80 0 0 -400z m4620 -5 l0 -395 -75 0 -75 0 0 395 0 395 75 0 75 0 0 -395z"/>
</g>
</svg>
