<?xml version="1.0" standalone="no"?>
<!DOCTYPE svg PUBLIC "-//W3C//DTD SVG 20010904//EN"
 "http://www.w3.org/TR/2001/REC-SVG-20010904/DTD/svg10.dtd">
<svg version="1.0" xmlns="http://www.w3.org/2000/svg"
 width="512.000000pt" height="512.000000pt" viewBox="0 0 512.000000 512.000000"
 preserveAspectRatio="xMidYMid meet">

<g transform="translate(0.000000,512.000000) scale(0.100000,-0.100000)"
fill="#000000" stroke="none">
<path d="M755 5111 c-11 -5 -29 -19 -40 -31 -20 -22 -20 -36 -20 -2521 l0
-2499 28 -27 27 -28 1798 -2 c1424 -2 1802 0 1822 10 14 7 33 28 43 47 16 33
17 169 15 2517 l-3 2483 -28 27 -27 28 -1798 2 c-988 1 -1806 -2 -1817 -6z
m3475 -2551 l0 -2360 -1665 0 -1665 0 -1 563 c0 721 0 2877 0 3600 l1 557
1665 0 1665 0 0 -2360z"/>
</g>
</svg>
