<?xml version="1.0" standalone="no"?>
<!DOCTYPE svg PUBLIC "-//W3C//DTD SVG 20010904//EN"
 "http://www.w3.org/TR/2001/REC-SVG-20010904/DTD/svg10.dtd">
<svg version="1.0" xmlns="http://www.w3.org/2000/svg"
 width="512.000000pt" height="512.000000pt" viewBox="0 0 512.000000 512.000000"
 preserveAspectRatio="xMidYMid meet">

<g transform="translate(0.000000,512.000000) scale(0.100000,-0.100000)"
fill="#000000" stroke="none">
<path d="M4673 5000 c-36 -18 -323 -364 -1725 -2073 -925 -1129 -1704 -2077
-1731 -2109 -85 -99 -192 -124 -298 -71 -76 39 -112 93 -117 178 -3 51 0 73
18 109 12 25 19 50 15 56 -3 5 0 7 8 5 16 -7 119 112 147 171 106 217 -41 468
-282 482 -143 9 -228 -43 -347 -210 -99 -139 -153 -240 -183 -344 -20 -68 -23
-101 -22 -239 0 -148 2 -166 28 -245 108 -327 348 -537 684 -601 100 -19 279
-7 382 26 144 46 259 114 353 209 29 28 254 317 502 641 437 574 847 1112
2189 2869 356 467 654 864 662 882 36 85 3 195 -74 248 -58 41 -147 47 -209
16z m87 -105 c0 -7 -1315 -1733 -1339 -1757 -15 -16 -19 -15 -58 20 l-41 37
694 844 c382 465 700 848 706 853 15 9 38 11 38 3z m-1424 -1876 c49 -39 93
-74 98 -79 11 -11 -714 -962 -730 -958 -7 2 -62 42 -123 91 l-111 87 322 393
c177 215 349 425 381 465 33 39 63 72 67 72 4 0 47 -32 96 -71z m-868 -1014
c28 -22 50 -45 48 -51 -2 -5 -52 -74 -112 -151 l-107 -142 -59 46 c-32 25 -62
51 -68 58 -13 16 217 298 234 287 7 -4 36 -25 64 -47z m-216 -468 l77 -61 -27
-36 c-216 -286 -715 -937 -749 -977 -89 -105 -239 -196 -380 -229 -51 -12
-101 -15 -198 -11 -113 3 -141 8 -212 34 -374 136 -577 525 -472 904 25 91 56
151 137 269 113 165 158 200 257 200 98 0 160 -38 201 -125 47 -98 29 -160
-82 -295 -99 -119 -119 -166 -119 -275 0 -67 4 -89 28 -136 33 -69 99 -132
175 -167 47 -22 71 -27 137 -27 107 1 183 34 257 114 29 31 219 259 423 508
l369 452 50 -41 c28 -22 86 -68 128 -101z"/>
<path d="M2585 1060 c-206 -45 -353 -196 -387 -397 -48 -285 184 -553 477
-553 122 0 226 43 321 133 263 245 169 680 -172 797 -68 24 -181 33 -239 20z"/>
</g>
</svg>
